<?xml version="1.0" encoding="utf-8"?>
<!-- Generator: Adobe Illustrator 28.0.0, SVG Export Plug-In . SVG Version: 6.00 Build 0)  -->
<svg version="1.1" id="Слой_1" xmlns="http://www.w3.org/2000/svg" xmlns:xlink="http://www.w3.org/1999/xlink" x="0px" y="0px"
	 viewBox="0 0 1000 262.7686157" enable-background="new 0 0 1000 262.7686157" xml:space="preserve">
<polygon fill="#018C45" points="943.5826416,19.3137245 1000,131.33461 881.4035034,243.4129333 "/>
<polygon fill="#F47920" points="904.5108643,19.3137245 960.8516235,131.33461 842.3317871,243.4129333 "/>
<path fill="#29387E" d="M91.6615601,87.1118469h27.3802567c9.5928421,0,16.6810074-1.3696365,21.044075-4.2001038
	c4.3868866-2.8592606,7.6435547-7.6914902,9.5545502-14.6694489c1.973114-7.1024818,1.4941559-12.0547104-1.3458099-14.8707085
	c-2.8352966-2.8544388-9.6168213-4.2433662-20.277771-4.2433662h-25.8140488L91.6615601,87.1118469z M0,202.652771L56.2498474,0
	h89.9278564c28.1130829,0,46.8869019,4.4444776,56.4367828,13.6159534
	c9.4778137,9.0947437,11.3074036,23.9414806,5.5938416,44.8082657
	c-3.4579163,12.2892876-8.7116699,22.6101418-15.9339905,30.7614403
	c-7.1645966,8.1704559-16.5994568,14.6263351-28.227829,19.3726273c9.8610535,2.3754883,16.134964,7.0831909,18.9511108,14.1473846
	c2.7968597,7.0593567,2.4760437,17.3610687-0.9196167,30.8571777l-6.8437805,28.3093719l-0.0191498,0.7614746
	c-1.9732513,7.9310455-1.3937531,12.174408,1.8294525,12.5191956l-2.0736694,7.4998779h-60.8380051
	c0.2059326-4.7652893,0.5841904-9.032486,0.9817352-12.6101074c0.445488-3.6636963,0.986557-6.5038147,1.5326004-8.4529572
	l5.6704407-20.2394867c2.8592606-10.5219574,3.0412216-17.8638458,0.3832169-22.0928955
	c-2.6724701-4.3437805-8.6685486-6.4750366-18.1273651-6.4750366H79.0083389L59.5113335,202.652771H0z"/>
<path fill="#29387E" d="M375.1709595,53.1101112l-41.4655151,149.5447083h-50.3926086l6.1925049-21.9107819
	c-8.8696594,8.7116699-17.9452515,15.330368-27.0975952,19.5544434c-9.0709229,4.3056335-18.6494446,6.4224243-28.7259216,6.4224243
	c-8.3382263,0-15.4933319-1.5133057-21.25-4.5114288c-5.8334045-2.9932861-10.1771851-7.5431366-13.0987091-13.5392151
	c-2.5957336-5.2490692-3.7211456-11.7289276-3.2758026-19.473175c0.4598083-7.6245575,3.1560974-20.4837189,8.1464691-38.486557
	l21.4847412-77.6004181h55.1242828l-21.4462891,77.2364807c-3.1369629,11.3074188-3.8792877,19.2527771-2.3515015,23.5823822
	c1.5900269,4.362915,5.8380737,6.6186981,12.7346191,6.6186981c6.9444885,0,12.7777405-2.5191498,17.6053162-7.6483765
	c4.8899536-5.0910645,8.6686707-12.6771851,11.5038147-22.7729645l21.269165-77.0162201H375.1709595z"/>
<path fill="#29387E" d="M446.3504333,91.1158066h19.4394226c12.5718079,0,21.4031677-1.5517426,26.5756531-4.5450287
	c5.0046997-3.0412292,8.5726624-8.4291458,10.7375488-16.096817c2.1791992-7.7680817,1.6138611-13.194294-1.6667786-16.2355194
	c-3.1560974-3.0220833-11.2259827-4.5450325-24.1377563-4.5450325h-19.3964539L446.3504333,91.1158066z M355.1724854,202.652771
	L411.364624,0h77.2940674c17.0640869,0,30.2584839,1.0058501,39.6741943,3.2136924
	c9.3964233,2.1167867,16.7624512,5.5554142,22.2365723,10.4022608c6.8582764,6.3410072,11.0631714,14.1858177,12.796875,23.6061993
	c1.6235352,9.410881,0.6609497,20.3783302-2.8973999,33.2518082c-6.2978516,22.6532593-17.3323975,40.014328-33.0603027,52.1502991
	c-15.7712097,11.9683304-35.2875061,17.983696-58.5822449,17.983696h-36.1734619l-17.1836548,62.0448151H355.1724854z"/>
<path fill="#29387E" d="M638.7072144,135.8809662c-5.8527222,2.3515015-13.4578247,4.6072845-22.9121094,7.0833282
	c-14.8512573,3.9798431-23.1991577,9.2911835-25.0094604,15.8715973c-1.249939,4.2240601-0.7421875,7.4808807,1.3218384,9.9569092
	c2.0403442,2.3563385,5.5796509,3.5440063,10.5650635,3.5440063c9.1572876,0,16.4990845-2.3132172,21.9685059-6.8822174
	c5.4981689-4.626297,9.6025391-11.8917389,12.4759521-21.9107819c0.4981079-2.1312561,0.9385986-3.6590271,1.230957-4.8084106
	L638.7072144,135.8809662z M625.3116455,202.652771l0.5554199-14.2048187
	c-8.8840332,6.6618195-17.8831787,11.6904907-26.9396362,14.8274536
	c-9.0084839,3.2040405-18.6063232,4.8275452-28.8840332,4.8275452c-15.6130371,0-26.4990845-4.2432098-32.7966919-12.4519653
	c-6.2166138-8.2280273-7.2368164-20.0383606-2.9932861-35.1053619c4.0610962-14.8658752,11.2832642-25.8140411,21.7095337-32.811142
	c10.3592529-7.0833359,27.6627808-12.1552658,51.9443359-15.3927841c3.0795288-0.5027771,7.203186-0.9051437,12.3707275-1.527771
	c17.9453735-2.0736694,28.0266724-6.8629303,30.196228-14.6694489c1.1303711-4.2625122,0.4454956-7.4233017-2.2125244-9.353447
	c-2.5527344-2.0115509-7.34198-2.9981079-14.2432251-2.9981079c-5.7328491,0-10.3449707,1.1878128-14.1237183,3.6590347
	c-3.7787476,2.4951859-6.5995483,6.1398926-8.5057373,11.2691116h-53.7402954
	c4.8515015-16.8389969,14.7653198-29.5593033,29.6504517-38.060215c14.8322754-8.65905,34.3869019-12.820858,58.6109009-12.820858
	c11.3887939,0,21.5852661,1.0631409,30.5984497,3.3763618c9.0374756,2.2174911,15.6323242,5.378418,19.9188232,9.195446
	c5.2680664,4.7701187,8.390564,10.2058258,9.2765503,16.221199c1.0251465,5.991394-0.1005249,14.5833588-3.2423096,25.8333282
	l-23.112915,83.3714066c-0.7471924,2.7347412-0.8810425,5.1676636-0.4837646,7.3803253
	c0.4837646,2.1167908,1.40802,3.9224091,3.036499,5.2106323l-1.2452393,4.2240753H625.3116455z"/>
<path fill="#29387E" d="M681.0759888,261.58078L693.3125,217.318573h15.770874
	c5.2683716,0,9.4157104-1.0393219,12.3513794-2.9358521c2.9790039-1.9732666,5.0097046-5.2921906,6.1783447-9.7604828
	c0.5843506-1.9684448,0.9432983-4.0422668,1.1876831-6.3984528c0.1581421-2.490509,0.1581421-5.1245422,0-8.1849213
	l-8.4147949-136.9297791h55.7902832l-0.8623047,90.7374115l48.7116699-90.7374115h51.8820801L789.796936,201.9306183
	c-9.7749634,16.6378784-16.8726196,28.0651398-21.3842163,34.3006287
	c-4.4492798,6.1590271-8.6685181,10.9434662-12.7775879,14.1858063c-5.3113403,4.4827728-11.2406006,7.6628418-17.6390381,9.5162659
	c-6.4224243,1.8870239-16.1970825,2.8352966-29.3342285,2.8352966c-3.7834473,0-8.1321411-0.0814209-12.8352051-0.3208313
	C691.1522827,262.265686,686.1668701,261.9831543,681.0759888,261.58078"/>
</svg>
